<?xml version="1.0" standalone="no"?>
<!DOCTYPE svg PUBLIC "-//W3C//DTD SVG 20010904//EN"
 "http://www.w3.org/TR/2001/REC-SVG-20010904/DTD/svg10.dtd">
<svg version="1.0" xmlns="http://www.w3.org/2000/svg"
 width="289.000000pt" height="94.000000pt" viewBox="0 0 289.000000 94.000000"
 preserveAspectRatio="xMidYMid meet">

<g transform="translate(0.000000,94.000000) scale(0.100000,-0.100000)"
fill="white" stroke="none">
<path d="M0 470 l0 -470 1445 0 1445 0 0 470 0 470 -1445 0 -1445 0 0 -470z
m348 302 c1 -67 4 -122 5 -122 1 0 27 -9 57 -19 72 -23 82 -44 73 -145 l-6
-77 -57 -39 c-32 -22 -60 -49 -64 -62 -3 -13 -6 -83 -6 -155 l0 -133 -65 0
-65 0 0 138 c0 151 7 174 57 187 57 14 63 28 63 145 0 118 -5 129 -67 151 -18
6 -33 19 -37 32 -10 36 -7 147 4 168 11 20 79 60 95 55 6 -1 11 -54 13 -124z
m569 -110 c17 -11 14 -72 -4 -72 -7 0 -18 11 -23 25 -25 67 -136 42 -115 -26
4 -11 34 -28 76 -44 75 -29 89 -45 89 -98 0 -70 -84 -112 -183 -91 -41 9 -42
10 -45 52 -2 32 0 42 12 42 8 0 18 -10 22 -22 17 -58 75 -77 114 -38 40 40 18
78 -58 101 -90 26 -118 94 -63 150 27 26 36 29 98 29 37 0 73 -4 80 -8z m-639
-169 l-3 -127 -44 -17 c-68 -25 -71 -34 -71 -191 l0 -139 -62 3 -63 3 -3 132
c-3 148 0 155 68 173 22 6 42 15 45 20 3 5 6 54 6 109 1 109 4 117 69 145 62
27 61 28 58 -111z m874 60 c14 -13 18 -31 18 -91 0 -59 4 -78 18 -89 15 -12
10 -13 -43 -12 -33 0 -73 -2 -90 -6 -36 -8 -61 9 -70 47 -10 40 31 78 85 78
37 0 40 2 40 29 0 31 -22 57 -40 46 -6 -4 -15 -18 -20 -31 -5 -13 -17 -24 -25
-24 -24 0 -29 29 -10 50 23 26 110 28 137 3z m158 7 c0 -7 6 -7 19 0 28 15 77
12 91 -5 11 -13 15 -13 33 0 24 17 74 20 97 5 11 -6 16 -33 19 -92 2 -61 7
-86 20 -95 13 -10 5 -12 -49 -12 -56 0 -63 1 -47 13 13 10 17 28 17 77 0 75
-8 92 -41 87 -22 -3 -24 -8 -27 -76 -2 -46 2 -79 9 -88 10 -12 2 -14 -47 -14
-49 0 -55 2 -40 13 14 10 16 25 14 87 l-3 75 -30 0 -30 0 -3 -73 c-2 -46 2
-79 9 -88 10 -12 2 -14 -47 -14 -51 1 -57 2 -41 14 23 18 25 163 2 172 -30 12
-14 24 30 24 25 0 45 -5 45 -10z m494 -12 c11 -15 16 -45 16 -92 0 -54 4 -72
18 -83 15 -12 10 -13 -43 -13 -33 1 -74 -2 -92 -6 -24 -5 -36 -1 -52 15 -50
50 -10 111 73 111 33 0 36 2 36 30 0 49 -52 62 -61 15 -5 -25 -37 -32 -45 -10
-12 30 24 55 82 55 43 0 56 -4 68 -22z m156 10 c0 -9 3 -9 12 0 7 7 25 12 40
12 21 0 29 -6 34 -24 11 -44 -28 -67 -41 -25 -4 12 -14 19 -23 17 -14 -3 -18
-18 -20 -79 -3 -70 -1 -76 20 -87 19 -9 11 -11 -47 -11 -60 0 -68 1 -52 13 23
18 25 163 2 172 -30 12 -14 24 30 24 28 0 45 -4 45 -12z m196 1 c4 -8 9 -8 17
0 19 19 84 13 105 -10 39 -41 34 -147 -9 -181 -24 -20 -61 -23 -90 -8 -17 10
-19 7 -19 -20 0 -27 -3 -30 -30 -30 l-30 0 0 115 c0 94 -3 117 -15 121 -8 4
-15 10 -15 15 0 13 78 11 86 -2z m356 -6 c14 -13 18 -31 18 -89 0 -64 3 -75
23 -89 21 -16 20 -16 -33 -14 -30 2 -70 -1 -88 -5 -47 -11 -82 13 -82 58 0 42
18 57 75 64 43 4 45 6 45 37 0 52 -42 59 -60 9 -11 -27 -22 -30 -39 -10 -10
12 -8 19 8 35 27 27 105 29 133 4z m168 7 c0 -7 6 -7 19 0 11 5 36 10 55 10
46 0 56 -19 56 -111 0 -57 4 -75 18 -85 15 -12 8 -13 -47 -14 -55 0 -62 2 -47
13 14 10 16 25 14 87 l-3 75 -30 0 -30 0 -3 -73 c-2 -46 2 -79 9 -88 10 -12 2
-14 -47 -14 -51 1 -57 2 -41 14 23 18 25 163 2 172 -30 12 -14 24 30 24 25 0
45 -5 45 -10z m-2132 -352 l-3 -183 -65 0 -65 0 -3 149 c-2 143 -2 150 20 174
27 29 53 40 91 41 l27 1 -2 -182z m514 2 c3 -74 2 -80 -17 -80 -18 0 -20 7
-20 80 0 68 2 80 17 80 14 0 17 -13 20 -80z m130 1 l3 -79 -30 -4 c-16 -2 -38
-2 -47 0 -24 5 -33 47 -19 79 9 20 17 24 37 20 24 -4 26 -2 22 29 -3 27 0 34
13 34 15 0 18 -12 21 -79z m1100 -1 c3 -74 2 -80 -17 -80 -18 0 -20 7 -20 80
0 68 2 80 17 80 14 0 17 -13 20 -80z m-1302 55 c0 -8 -4 -15 -9 -15 -13 0 -22
16 -14 24 11 11 23 6 23 -9z m897 -7 c18 -19 20 -93 2 -114 -7 -9 -30 -14 -63
-14 l-51 0 0 73 0 72 48 -1 c29 0 54 -7 64 -16z m-1157 -18 c0 -19 5 -30 14
-30 19 0 29 30 15 46 -9 11 -7 14 9 14 27 0 36 -29 17 -50 -14 -16 -14 -18 0
-23 18 -7 20 -38 3 -55 -7 -7 -35 -12 -62 -12 -32 0 -46 3 -38 9 10 6 13 26
10 70 -3 53 -1 61 15 61 12 0 17 -8 17 -30z m920 4 c0 -3 -5 -15 -11 -26 -9
-17 -6 -25 21 -53 l31 -32 -60 -1 c-58 -1 -61 0 -61 23 0 13 5 27 11 30 6 4 7
19 4 35 -5 21 -2 31 12 38 16 10 53 0 53 -14z m-790 -59 c0 -35 4 -45 16 -45
13 0 15 9 12 45 -2 37 0 45 13 45 13 0 18 -11 21 -50 l3 -51 -45 3 -45 3 -5
48 c-5 41 -3 47 12 47 15 0 18 -8 18 -45z m132 -5 c3 -45 1 -50 -17 -50 -17 0
-20 7 -20 50 0 40 3 50 17 50 12 0 17 -12 20 -50z m308 31 c14 -27 13 -31 -9
-31 -14 0 -18 5 -14 20 4 14 0 20 -11 20 -12 0 -16 -10 -16 -38 0 -48 8 -57
32 -35 16 14 18 14 18 1 0 -19 -29 -28 -58 -17 -17 6 -22 16 -22 42 0 18 5 38
12 45 18 18 56 14 68 -7z m108 1 c2 -8 -5 -11 -20 -10 -19 3 -24 -2 -26 -26
-2 -16 2 -32 10 -37 8 -6 1 -8 -22 -8 -19 0 -29 3 -22 6 15 6 16 65 0 81 -9 9
-2 11 32 9 24 -1 45 -8 48 -15z m82 2 c0 -14 -3 -14 -15 -4 -12 10 -19 10 -27
2 -8 -8 -4 -14 15 -21 32 -12 36 -45 8 -61 -25 -13 -51 -3 -51 19 1 14 2 14
11 -1 5 -10 16 -15 24 -12 22 9 18 19 -10 32 -23 11 -33 40 -18 55 3 4 19 7
35 7 19 0 28 -5 28 -16z m504 10 c20 -8 21 -44 1 -44 -8 0 -14 3 -14 8 3 20
-2 33 -13 30 -17 -6 -19 -65 -2 -79 11 -9 15 -8 20 5 7 17 24 22 24 6 0 -5 -9
-14 -21 -20 -26 -15 -69 11 -69 41 0 48 31 70 74 53z m81 -4 c-3 -5 -3 -21 1
-35 5 -20 9 -23 15 -13 5 7 9 23 9 36 0 12 6 22 14 22 11 0 10 -10 -7 -50 -19
-46 -47 -68 -47 -37 0 7 -9 29 -19 50 l-19 37 30 0 c16 0 27 -4 23 -10z m156
-17 c7 -19 5 -23 -11 -23 -12 0 -17 5 -14 14 6 14 -13 32 -23 22 -10 -9 -10
-50 0 -69 8 -18 10 -18 28 -1 10 9 19 12 19 6 0 -20 -38 -34 -60 -22 -26 14
-30 60 -7 88 16 20 59 10 68 -15z m177 15 c21 -21 14 -66 -13 -84 -23 -15 -27
-15 -50 0 -17 11 -25 26 -25 44 0 35 16 52 50 52 14 0 31 -5 38 -12z m132 -8
c6 -10 10 -28 10 -39 0 -24 -36 -52 -58 -44 -12 5 -14 1 -10 -20 4 -22 2 -27
-16 -27 -19 0 -21 5 -21 74 l0 74 43 0 c31 0 45 -5 52 -18z m94 14 c20 -8 21
-44 2 -44 -8 0 -13 8 -12 18 0 9 -6 17 -14 17 -17 0 -23 -53 -7 -72 7 -9 5
-13 -6 -13 -22 0 -40 36 -31 63 10 34 33 44 68 31z m116 -11 c0 -10 -6 -12
-21 -8 -20 7 -21 4 -17 -34 3 -36 1 -41 -17 -41 -17 0 -20 6 -20 49 l0 50 38
-1 c25 0 37 -5 37 -15z m85 6 c4 -6 4 -13 0 -17 -4 -4 -10 -1 -12 6 -6 14 -33
16 -33 2 0 -6 11 -16 25 -22 30 -13 31 -51 3 -56 -13 -2 -16 1 -12 12 4 11 -2
19 -20 26 -28 10 -33 29 -14 48 15 15 55 16 63 1z m-1145 -15 c0 -3 -6 -12
-14 -19 -12 -12 -15 -11 -19 5 -4 15 0 20 14 20 10 0 19 -3 19 -6z m955 -63
c-3 -6 -11 -11 -17 -11 -6 0 -6 6 2 15 14 17 26 13 15 -4z m135 4 c10 -12 10
-15 -4 -15 -9 0 -16 7 -16 15 0 8 2 15 4 15 2 0 9 -7 16 -15z"/>
<path d="M1054 435 c-8 -34 1 -55 25 -55 21 0 31 18 31 56 0 35 -47 34 -56 -1z"/>
<path d="M1707 453 c-13 -13 -7 -64 8 -69 23 -9 45 15 45 47 0 24 -4 29 -23
29 -13 0 -27 -3 -30 -7z"/>
<path d="M2172 538 c-18 -18 -15 -133 4 -152 19 -20 29 -20 48 0 19 18 22 114
6 145 -12 21 -40 25 -58 7z"/>
<path d="M2420 445 c-7 -9 -10 -25 -6 -41 5 -19 12 -25 29 -22 18 2 23 11 25
41 3 31 0 37 -16 37 -11 0 -25 -7 -32 -15z"/>
<path d="M1124 207 c-10 -27 0 -62 19 -65 16 -3 18 2 15 34 -3 39 -24 57 -34
31z"/>
<path d="M1810 200 c0 -51 3 -60 18 -60 27 0 42 20 42 56 0 48 -9 64 -36 64
-23 0 -24 -3 -24 -60z"/>
<path d="M730 170 c0 -25 4 -31 18 -28 11 2 17 12 17 28 0 16 -6 26 -17 28
-14 3 -18 -3 -18 -28z"/>
<path d="M1610 241 c0 -12 5 -21 10 -21 6 0 10 6 10 14 0 8 -4 18 -10 21 -5 3
-10 -3 -10 -14z"/>
<path d="M1596 182 c-9 -15 4 -42 20 -42 18 0 18 11 1 35 -9 11 -16 14 -21 7z"/>
<path d="M2354 207 c-10 -27 0 -72 16 -72 11 0 15 11 15 39 0 40 -20 61 -31
33z"/>
<path d="M2487 214 c-4 -4 -7 -23 -7 -41 0 -27 4 -34 18 -31 12 2 17 13 17 37
0 33 -13 49 -28 35z"/>
</g>
</svg>
