<?xml version="1.0" standalone="no"?>
<!DOCTYPE svg PUBLIC "-//W3C//DTD SVG 20010904//EN"
 "http://www.w3.org/TR/2001/REC-SVG-20010904/DTD/svg10.dtd">
<svg version="1.0" xmlns="http://www.w3.org/2000/svg"
 width="424.000000pt" height="191.000000pt" viewBox="0 0 424.000000 191.000000"
 preserveAspectRatio="xMidYMid meet">

<g transform="translate(0.000000,191.000000) scale(0.100000,-0.100000)"
fill="white" stroke="none">
<path d="M0 955 l0 -955 2120 0 2120 0 0 955 0 955 -2120 0 -2120 0 0 -955z
m1040 95 l0 -440 -360 0 -360 0 0 440 0 440 360 0 360 0 0 -440z m349 424 c27
-6 31 -11 31 -39 l0 -32 -48 10 c-56 12 -97 4 -106 -19 -8 -22 16 -48 79 -84
66 -38 94 -69 101 -112 13 -80 -48 -132 -156 -131 -93 0 -110 7 -110 47 l0 33
60 -16 c54 -14 63 -14 88 -1 33 19 40 53 15 75 -10 9 -47 36 -83 58 -72 47
-90 81 -74 139 19 64 100 92 203 72z m2250 0 c27 -6 31 -10 31 -40 0 -32 -1
-33 -26 -24 -28 11 -84 13 -108 4 -21 -8 -20 -47 2 -66 9 -8 38 -27 63 -41 90
-51 118 -111 84 -177 -23 -44 -69 -64 -145 -63 -94 0 -110 7 -110 48 l0 33 47
-14 c61 -19 86 -18 113 4 39 31 21 63 -60 111 -95 57 -119 105 -85 171 27 52
100 73 194 54z m-1890 -30 c25 -21 31 -34 31 -64 0 -49 -16 -85 -47 -105 l-23
-16 60 -86 c33 -48 60 -89 60 -92 0 -3 -21 -6 -47 -6 l-47 0 -49 78 c-39 61
-54 77 -73 77 -23 0 -24 -3 -24 -74 l0 -74 -35 -4 c-20 -2 -38 -2 -40 1 -3 2
-5 91 -5 198 l0 193 104 0 c98 0 106 -2 135 -26z m229 -164 c1 -101 1 -189 -2
-195 -2 -6 -21 -9 -45 -7 l-41 4 0 195 0 194 43 -3 42 -3 3 -185z m253 66 l84
-125 3 125 3 124 34 0 35 0 0 -195 0 -195 -39 0 c-38 0 -39 1 -122 127 l-84
126 -3 -126 -3 -127 -34 0 -35 0 0 195 0 195 39 0 c38 0 39 -1 122 -124z m339
-73 l0 -198 -37 1 -38 1 -3 197 -2 196 40 0 40 0 0 -197z m174 130 c14 -38 39
-104 55 -148 24 -65 31 -76 37 -60 5 11 29 76 54 145 44 123 46 125 77 128
l33 3 -49 -139 c-27 -76 -60 -165 -73 -197 -22 -56 -24 -58 -61 -59 -27 -1
-42 4 -48 15 -9 17 -139 367 -139 375 0 2 20 4 44 4 l44 0 26 -67z m562 -80
c31 -82 65 -169 75 -195 10 -27 17 -48 14 -49 -3 0 -22 -1 -42 -1 -39 -1 -44
3 -68 65 l-15 37 -80 0 -79 0 -18 -50 c-16 -46 -20 -50 -50 -50 l-33 0 24 63
c13 34 47 122 76 195 l51 132 44 0 43 0 58 -147z m-2074 -498 c3 -152 11 -169
73 -169 62 0 69 17 73 169 4 124 6 135 23 135 18 0 19 -10 19 -141 l0 -141
-29 -29 c-26 -25 -37 -29 -86 -29 -107 0 -125 30 -125 208 0 65 3 122 7 125 3
4 14 7 24 7 15 0 17 -15 21 -135z m318 123 c7 -7 44 -62 83 -123 l72 -110 3
123 c2 114 4 122 22 122 19 0 20 -8 20 -170 0 -170 0 -170 -22 -170 -18 0 -40
26 -103 123 l-80 122 -3 -122 c-2 -115 -4 -123 -22 -123 -19 0 -20 8 -20 170
0 162 1 170 20 170 10 0 24 -6 30 -12z m338 -160 l2 -168 -30 0 -30 0 0 163
c0 90 3 167 7 171 4 4 16 6 28 4 19 -3 20 -11 23 -170z m139 47 c25 -66 48
-123 52 -127 3 -4 27 50 52 120 38 106 49 128 67 130 13 2 22 -2 21 -10 0 -7
-26 -83 -57 -168 -52 -140 -60 -155 -82 -158 -24 -2 -28 6 -86 160 -34 90 -59
167 -57 171 3 5 14 7 25 5 16 -2 30 -28 65 -123z m423 105 c0 -17 -8 -19 -67
-22 l-68 -3 -3 -47 -3 -48 61 0 c58 0 61 -1 58 -22 -3 -20 -10 -23 -60 -26
l-58 -3 0 -54 0 -55 75 0 c68 0 75 -2 75 -20 0 -19 -7 -20 -100 -20 l-100 0 0
163 c0 90 3 167 7 170 3 4 46 7 95 7 81 0 88 -2 88 -20z m238 -15 c35 -41 26
-99 -20 -136 -20 -16 -20 -17 31 -86 28 -39 51 -74 51 -77 0 -3 -13 -6 -29 -6
-24 0 -35 11 -75 70 -31 48 -53 70 -66 70 -18 0 -20 -7 -20 -70 0 -68 -1 -70
-25 -70 l-25 0 0 171 0 172 78 -6 c67 -5 80 -9 100 -32z m256 29 c9 -3 16 -17
16 -30 0 -21 -3 -23 -19 -14 -29 15 -87 12 -101 -5 -20 -24 -7 -49 45 -82 79
-51 95 -70 95 -113 0 -27 -7 -45 -26 -64 -24 -23 -35 -26 -94 -26 -70 0 -98
14 -87 44 5 12 12 13 52 1 30 -10 54 -11 69 -5 59 22 45 67 -34 115 -33 20
-65 45 -70 55 -17 32 -11 76 15 104 20 21 33 26 74 26 27 0 56 -3 65 -6z m146
-164 l0 -170 -25 0 -25 0 0 163 c0 90 3 167 7 170 3 4 15 7 25 7 17 0 18 -12
18 -170z m429 92 l44 -72 40 67 c42 70 53 83 75 83 21 0 13 -21 -43 -112 -53
-85 -55 -91 -55 -158 0 -68 -1 -70 -25 -70 -24 0 -25 2 -25 70 0 67 -3 75 -52
160 -30 51 -55 84 -59 78 -4 -6 -31 -11 -61 -12 l-53 -1 -3 -147 -3 -148 -24
0 -24 0 -3 148 -3 147 -57 3 c-55 3 -72 15 -51 36 4 4 82 6 173 4 l165 -3 44
-73z"/>
<path d="M440 1045 l0 -285 235 0 235 0 0 285 0 285 -235 0 -235 0 0 -285z
m263 199 c43 -31 40 -42 -8 -37 -52 6 -85 -20 -85 -68 0 -38 12 -60 72 -132
35 -42 48 -67 48 -89 0 -94 -133 -108 -210 -22 -22 24 -22 26 -5 19 43 -16 56
-17 85 -5 44 18 41 58 -8 113 -62 68 -82 103 -82 140 0 38 30 83 64 98 31 13
100 4 129 -17z m99 -141 c3 -27 3 -50 1 -52 -2 -3 -14 6 -27 18 -26 25 -46 21
-46 -9 0 -19 25 -50 40 -50 5 0 22 11 38 25 16 13 32 22 36 18 3 -3 6 -35 6
-70 0 -53 -3 -63 -17 -63 -13 0 -14 3 -5 12 7 7 12 28 11 48 l-1 35 -8 -33
c-9 -38 -43 -90 -76 -115 l-23 -17 14 34 c18 43 9 73 -44 136 -56 68 -56 68
-25 101 23 24 36 29 75 29 l47 0 4 -47z"/>
<path d="M502 690 c0 -14 2 -19 5 -12 2 6 2 18 0 25 -3 6 -5 1 -5 -13z"/>
<path d="M531 694 c0 -11 3 -14 6 -6 3 7 2 16 -1 19 -3 4 -6 -2 -5 -13z"/>
<path d="M632 690 c0 -14 2 -19 5 -12 2 6 2 18 0 25 -3 6 -5 1 -5 -13z"/>
<path d="M555 689 c-4 -6 -5 -12 -2 -15 2 -3 7 2 10 11 7 17 1 20 -8 4z"/>
<path d="M770 696 c0 -2 8 -10 18 -17 15 -13 16 -12 3 4 -13 16 -21 21 -21 13z"/>
<path d="M1590 1355 c0 -62 11 -73 57 -58 40 14 61 53 45 87 -10 22 -18 26
-57 26 l-45 0 0 -55z"/>
<path d="M3181 1355 c-6 -16 -19 -47 -28 -68 -9 -20 -14 -40 -11 -43 3 -3 28
-4 55 -2 l49 3 -27 70 -27 70 -11 -30z"/>
<path d="M2560 860 c0 -58 1 -60 25 -60 27 0 75 40 75 63 0 24 -25 45 -62 51
l-38 7 0 -61z"/>
</g>
</svg>
